<svg xmlns="http://www.w3.org/2000/svg" width="368.322" height="50.164" viewBox="0 0 368.322 50.164">
  <g id="Group_1" data-name="Group 1" transform="translate(-228.462 -329.012)">
    <path id="Path_1" data-name="Path 1" d="M33.414-14.168C32.2-10.816,28.387-10,23.816-10c-5.434-.076-10.055-1.092-9.979-6.652v-.838c-.076-5.611,4.545-6.576,9.979-6.652,4.57,0,8.354.787,9.6,4.139H47.049c-.838-11.5-10.943-14.955-23.232-14.98C11.02-34.937.457-31.23.508-18.332v2.488C.457-2.92,11.02.787,23.816.813c12.289,0,22.395-3.453,23.232-14.98Zm12.4-19.957V0h13.3V-8.328H71L77.421,0H91.589L84.15-9.572a12.8,12.8,0,0,0,5.383-4.672,12.439,12.439,0,0,0,2.057-6.982,12.884,12.884,0,0,0-12.9-12.9Zm29.529,9.979a2.9,2.9,0,0,1,2.92,2.92A2.8,2.8,0,0,1,77.4-19.17a2.8,2.8,0,0,1-2.057.838H59.114v-5.814ZM90.5-.025h13.3V-18.23L117.137-.025h6.652L137.12-18.23V-.025h13.3V-34.15H133.793l-13.33,17.063-13.3-17.062H90.5Zm81.966-24.2,4.672,10.08h-9.369ZM146.24.025h14.98l2.691-5.84H181l2.691,5.84h14.98L180.365-34.1H164.546Zm48.247-34.15V0h13.3V-8.328h11.883L226.1,0h14.168l-7.439-9.572a12.8,12.8,0,0,0,5.383-4.672,12.439,12.439,0,0,0,2.057-6.982,12.884,12.884,0,0,0-12.9-12.9Zm29.529,9.979a2.9,2.9,0,0,1,2.92,2.92,2.8,2.8,0,0,1-.863,2.057,2.8,2.8,0,0,1-2.057.838H207.792v-5.814ZM258.3-11.68,270.816-.025h17.469l-17.7-17.062,17.7-17.062H270.816L258.3-22.5h-5.814V-34.15h-13.3V-.025h13.3V-11.68ZM284.939.025h39.939v-8.76H298.243V-13.1h26.635V-21H298.243v-4.367h26.635V-34.1H284.939Zm68.027,0V-23.283h15.818V-34.1H323.842v10.816h15.818V.025Z" transform="translate(228 364)" fill="#fff"/>
    <path id="Path_2" data-name="Path 2" d="M5.874-2.97,6.8-6.094H6.105L5.852-5.4a1.336,1.336,0,0,0-.517-.7,1.337,1.337,0,0,0-.715-.2,2.092,2.092,0,0,0-1.061.275,2.715,2.715,0,0,0-.814.715,3.42,3.42,0,0,0-.523,1,3.562,3.562,0,0,0-.187,1.133,1.988,1.988,0,0,0,.115.682,1.7,1.7,0,0,0,.319.55,1.509,1.509,0,0,0,.495.368,1.489,1.489,0,0,0,.644.138,1.381,1.381,0,0,0,.759-.225,2.862,2.862,0,0,0,.605-.512h.033a.749.749,0,0,0,.22.539.7.7,0,0,0,.484.176,1.85,1.85,0,0,0,.836-.231,3,3,0,0,0,.836-.649A3.617,3.617,0,0,0,8.024-3.35a3.207,3.207,0,0,0,.259-1.3,3.135,3.135,0,0,0-.3-1.37A3.267,3.267,0,0,0,7.177-7.09a3.821,3.821,0,0,0-1.193-.7,4.109,4.109,0,0,0-1.441-.253,3.956,3.956,0,0,0-1.578.319,4.111,4.111,0,0,0-1.3.875,4.189,4.189,0,0,0-.88,1.3A3.925,3.925,0,0,0,.462-3.96,4.147,4.147,0,0,0,.781-2.326a4.079,4.079,0,0,0,.874,1.309,4.079,4.079,0,0,0,1.309.875A4.118,4.118,0,0,0,4.587.176,4.247,4.247,0,0,0,5.621.049a3.9,3.9,0,0,0,.952-.374,3.978,3.978,0,0,0,.819-.6,3.59,3.59,0,0,0,.638-.819H7.337a3.449,3.449,0,0,1-1.2.968,3.386,3.386,0,0,1-1.523.363A3.23,3.23,0,0,1,3.3-.687a3.5,3.5,0,0,1-1.084-.737A3.436,3.436,0,0,1,1.479-2.53,3.5,3.5,0,0,1,1.21-3.9a3.6,3.6,0,0,1,.258-1.364,3.627,3.627,0,0,1,.71-1.122A3.344,3.344,0,0,1,3.24-7.155a3.11,3.11,0,0,1,1.314-.28,3.183,3.183,0,0,1,1.117.2,3.008,3.008,0,0,1,.951.566,2.716,2.716,0,0,1,.666.9A2.739,2.739,0,0,1,7.535-4.6a2.936,2.936,0,0,1-.143.891,3.752,3.752,0,0,1-.363.814A2.435,2.435,0,0,1,6.54-2.3a.816.816,0,0,1-.523.231q-.264,0-.264-.341a1.083,1.083,0,0,1,.038-.27Q5.83-2.827,5.874-2.97ZM4.62-5.555a.685.685,0,0,1,.336.088,1.126,1.126,0,0,1,.286.226,1,1,0,0,1,.2.325,1.069,1.069,0,0,1,.071.385,2.441,2.441,0,0,1-.132.748,3.25,3.25,0,0,1-.363.764,2.341,2.341,0,0,1-.539.594,1.079,1.079,0,0,1-.671.237.863.863,0,0,1-.682-.3,1.121,1.121,0,0,1-.264-.764,2.448,2.448,0,0,1,.132-.765,2.971,2.971,0,0,1,.363-.742,2.15,2.15,0,0,1,.556-.566A1.217,1.217,0,0,1,4.62-5.555Zm17.27.066h1.045a2.922,2.922,0,0,0-.374-1.105,2.72,2.72,0,0,0-.715-.8,3.134,3.134,0,0,0-.979-.484A4.037,4.037,0,0,0,19.7-8.041a3.758,3.758,0,0,0-1.6.325,3.308,3.308,0,0,0-1.166.885,3.883,3.883,0,0,0-.709,1.314A5.24,5.24,0,0,0,15.983-3.9,5.538,5.538,0,0,0,16.208-2.3,3.709,3.709,0,0,0,16.885-1a3.133,3.133,0,0,0,1.133.863,3.786,3.786,0,0,0,1.6.314,3.31,3.31,0,0,0,2.376-.825,3.568,3.568,0,0,0,1.023-2.31H21.967a3,3,0,0,1-.2.9,2.177,2.177,0,0,1-.457.721,2.079,2.079,0,0,1-.693.473,2.331,2.331,0,0,1-.918.17,2.585,2.585,0,0,1-1.21-.264,2.363,2.363,0,0,1-.831-.71,3.039,3.039,0,0,1-.479-1.045,5.089,5.089,0,0,1-.154-1.27,4.55,4.55,0,0,1,.154-1.188,3.062,3.062,0,0,1,.479-1.017,2.377,2.377,0,0,1,.825-.709,2.552,2.552,0,0,1,1.2-.264,2.428,2.428,0,0,1,1.424.418A1.943,1.943,0,0,1,21.89-5.489Zm9.13-2.365V0h1.045V-3.355h2.552a1.387,1.387,0,0,1,.616.115,1.031,1.031,0,0,1,.374.308,1.277,1.277,0,0,1,.209.451q.066.258.11.544a3.835,3.835,0,0,1,.066.583q.011.3.022.556a3.39,3.39,0,0,0,.049.467.656.656,0,0,0,.149.33h1.166a1.343,1.343,0,0,1-.248-.456A3.578,3.578,0,0,1,37-1a5.063,5.063,0,0,1-.055-.583q-.011-.3-.033-.583a5.056,5.056,0,0,0-.093-.55,1.669,1.669,0,0,0-.187-.478,1.206,1.206,0,0,0-.341-.369,1.4,1.4,0,0,0-.556-.22v-.022a1.67,1.67,0,0,0,1.039-.737A2.384,2.384,0,0,0,37.1-5.8,1.893,1.893,0,0,0,36.471-7.3a2.586,2.586,0,0,0-1.755-.55Zm3.223,3.619H32.065V-6.974h2.6a1.356,1.356,0,0,1,1.067.374,1.409,1.409,0,0,1,.33.968,1.441,1.441,0,0,1-.148.7,1.175,1.175,0,0,1-.4.429,1.512,1.512,0,0,1-.577.214A4.212,4.212,0,0,1,34.243-4.235ZM45.287-7.854V0h.99V-6.534H46.3L48.752,0h.891L52.1-6.534h.022V0h.99V-7.854h-1.43l-2.486,6.6-2.475-6.6ZM72.369-.88V-6.974h1.76a3.22,3.22,0,0,1,1.221.2,1.981,1.981,0,0,1,.808.594,2.415,2.415,0,0,1,.451.946,5.257,5.257,0,0,1,.137,1.259A4.484,4.484,0,0,1,76.6-2.734a3.014,3.014,0,0,1-.38.852,1.985,1.985,0,0,1-.522.539,2.564,2.564,0,0,1-.589.3,2.468,2.468,0,0,1-.561.132,4.383,4.383,0,0,1-.44.028ZM71.324-7.854V0h2.695a4.715,4.715,0,0,0,1.694-.275,2.956,2.956,0,0,0,1.177-.8,3.28,3.28,0,0,0,.682-1.287,6.357,6.357,0,0,0,.22-1.755,3.7,3.7,0,0,0-.979-2.816,3.916,3.916,0,0,0-2.794-.924ZM87.131-3.245l1.331-3.663h.022l1.309,3.663Zm.781-4.609L84.854,0h1.067l.88-2.365h3.322L90.981,0h1.155L89.067-7.854Zm14.135,4.642,3-4.642h-1.188l-2.3,3.74-2.354-3.74H97.966L101-3.212V0h1.045ZM112.024-.88V0h6.248V-.88h-5l4.873-6.094v-.88H112.4v.88h4.51Zm29.689-.1.275.979h.66V-4.136h-3.443v.88h2.508a2.67,2.67,0,0,1-.143,1.007,2.291,2.291,0,0,1-.49.814,2.284,2.284,0,0,1-.8.544,2.8,2.8,0,0,1-1.089.2,2.494,2.494,0,0,1-1.16-.258,2.534,2.534,0,0,1-.842-.693,3.088,3.088,0,0,1-.517-1,3.963,3.963,0,0,1-.176-1.182,4.91,4.91,0,0,1,.154-1.227,3.287,3.287,0,0,1,.479-1.067,2.468,2.468,0,0,1,.836-.753,2.476,2.476,0,0,1,1.227-.286,3.2,3.2,0,0,1,.831.1,2.285,2.285,0,0,1,.7.314,1.84,1.84,0,0,1,.517.533,2.055,2.055,0,0,1,.286.775h1.045a3.175,3.175,0,0,0-.412-1.182,2.775,2.775,0,0,0-.748-.809,3.048,3.048,0,0,0-1.012-.467,4.734,4.734,0,0,0-1.2-.149,3.633,3.633,0,0,0-1.633.346,3.421,3.421,0,0,0-1.166.93,4.021,4.021,0,0,0-.7,1.359,5.569,5.569,0,0,0-.236,1.633,4.419,4.419,0,0,0,.253,1.485,3.827,3.827,0,0,0,.737,1.265,3.555,3.555,0,0,0,1.177.874,3.667,3.667,0,0,0,1.573.325,3.715,3.715,0,0,0,1.375-.27A2.611,2.611,0,0,0,141.713-.979ZM150.9-7.854V0h1.045V-3.355h2.552a1.387,1.387,0,0,1,.616.115,1.031,1.031,0,0,1,.374.308,1.277,1.277,0,0,1,.209.451q.066.258.11.544a3.835,3.835,0,0,1,.066.583q.011.3.022.556a3.391,3.391,0,0,0,.049.467.656.656,0,0,0,.148.33h1.166a1.342,1.342,0,0,1-.247-.456A3.578,3.578,0,0,1,156.882-1a5.066,5.066,0,0,1-.055-.583q-.011-.3-.033-.583a5.057,5.057,0,0,0-.093-.55,1.669,1.669,0,0,0-.187-.478,1.206,1.206,0,0,0-.341-.369,1.4,1.4,0,0,0-.556-.22v-.022a1.67,1.67,0,0,0,1.04-.737,2.384,2.384,0,0,0,.324-1.254,1.893,1.893,0,0,0-.632-1.507,2.586,2.586,0,0,0-1.755-.55Zm3.223,3.619h-2.178V-6.974h2.6a1.356,1.356,0,0,1,1.067.374,1.409,1.409,0,0,1,.33.968,1.441,1.441,0,0,1-.148.7,1.175,1.175,0,0,1-.4.429,1.512,1.512,0,0,1-.577.214A4.212,4.212,0,0,1,154.121-4.235Zm11.627.308A4.527,4.527,0,0,1,165.9-5.1a3.181,3.181,0,0,1,.484-1.04,2.474,2.474,0,0,1,.847-.742,2.548,2.548,0,0,1,1.232-.28,2.548,2.548,0,0,1,1.232.28,2.474,2.474,0,0,1,.847.742,3.181,3.181,0,0,1,.484,1.04,4.527,4.527,0,0,1,.154,1.171,4.527,4.527,0,0,1-.154,1.172,3.181,3.181,0,0,1-.484,1.039,2.474,2.474,0,0,1-.847.743,2.548,2.548,0,0,1-1.232.28,2.548,2.548,0,0,1-1.232-.28,2.474,2.474,0,0,1-.847-.743,3.181,3.181,0,0,1-.484-1.039A4.527,4.527,0,0,1,165.748-3.927Zm-1.045,0a5.061,5.061,0,0,0,.236,1.546,3.9,3.9,0,0,0,.71,1.314,3.4,3.4,0,0,0,1.177.908,3.77,3.77,0,0,0,1.639.336A3.77,3.77,0,0,0,170.1-.16a3.4,3.4,0,0,0,1.177-.908,3.9,3.9,0,0,0,.71-1.314,5.061,5.061,0,0,0,.236-1.546,5.061,5.061,0,0,0-.236-1.545,3.9,3.9,0,0,0-.71-1.314A3.463,3.463,0,0,0,170.1-7.7a3.719,3.719,0,0,0-1.639-.341,3.719,3.719,0,0,0-1.639.341,3.463,3.463,0,0,0-1.177.913,3.9,3.9,0,0,0-.71,1.314A5.061,5.061,0,0,0,164.7-3.927Zm21.78,1.089V-7.854h-1.045v5.016a2.226,2.226,0,0,1-.522,1.6,2.015,2.015,0,0,1-1.523.544,2.229,2.229,0,0,1-1.617-.544,2.131,2.131,0,0,1-.561-1.6V-7.854h-1.045v5.016a2.842,2.842,0,0,0,.853,2.293,3.562,3.562,0,0,0,2.37.721,3.218,3.218,0,0,0,2.288-.753A2.956,2.956,0,0,0,186.483-2.838Zm9.427-1.254V-6.974h2.046a1.922,1.922,0,0,1,1.3.369,1.363,1.363,0,0,1,.412,1.072,1.381,1.381,0,0,1-.412,1.078,1.866,1.866,0,0,1-1.3.363Zm-1.045-3.762V0h1.045V-3.212h2.4a2.392,2.392,0,0,0,1.8-.605,2.332,2.332,0,0,0,.611-1.716,2.312,2.312,0,0,0-.611-1.711,2.439,2.439,0,0,0-1.8-.61Z" transform="translate(228 379)" fill="#fff"/>
  </g>
</svg>
